HIERARCHY
ROOT Hips
{
	OFFSET 0.000000 0.000000 0.000000 
	CHANNELS 6 Xposition Yposition Zposition Zrotation Yrotation Xrotation
	JOINT LeftUpLeg
	{
		OFFSET 1.363060 -1.794630 0.839290 
		CHANNELS 3 Zrotation Yrotation Xrotation
		JOINT LeftLeg
		{
			OFFSET 2.448110 -6.726130 0.000000 
			CHANNELS 3 Zrotation Yrotation Xrotation
			JOINT LeftFoot
			{
				OFFSET 2.562200 -7.039590 0.000000 
				CHANNELS 3 Zrotation Yrotation Xrotation
				JOINT LeftToeBase
				{
					OFFSET 0.157640 -0.433110 2.322550 
					CHANNELS 3 Zrotation Yrotation Xrotation
					End Site
					{
						OFFSET 0.000000 0.000000 0.000000 
					}
				}
			}
		}
	}
	JOINT RightUpLeg
	{
		OFFSET -1.305520 -1.794630 0.839290 
		CHANNELS 3 Zrotation Yrotation Xrotation
		JOINT RightLeg
		{
			OFFSET -2.542530 -6.985550 0.000000 
			CHANNELS 3 Zrotation Yrotation Xrotation
			JOINT RightFoot
			{
				OFFSET -2.568260 -7.056230 0.000000 
				CHANNELS 3 Zrotation Yrotation Xrotation
				JOINT RightToeBase
				{
					OFFSET -0.164730 -0.452590 2.363150 
					CHANNELS 3 Zrotation Yrotation Xrotation
					End Site
					{
						OFFSET 0.000000 0.000000 0.000000 
					}
				}
			}
		}
	}
	JOINT Spine
	{
		OFFSET 0.028270 2.035590 -0.193380 
		CHANNELS 3 Zrotation Yrotation Xrotation
		JOINT Spine1
		{
			OFFSET 0.056720 2.048850 -0.042750 
			CHANNELS 3 Zrotation Yrotation Xrotation
			JOINT Neck1
			{
				OFFSET -0.054170 1.746240 0.172020 
				CHANNELS 3 Zrotation Yrotation Xrotation
				JOINT Head
				{
					OFFSET 0.104070 1.761360 -0.123970 
					CHANNELS 3 Zrotation Yrotation Xrotation
					End Site
					{
						OFFSET 0.000000 0.000000 0.000000 
					}
				}
			}
			JOINT LeftArm
			{
				OFFSET 3.362410 1.200890 -0.311210 
				CHANNELS 3 Zrotation Yrotation Xrotation
				JOINT LeftForeArm
				{
					OFFSET 4.983000 -0.000000 -0.000000 
					CHANNELS 3 Zrotation Yrotation Xrotation
					JOINT LeftHand
					{
						OFFSET 3.483560 -0.000000 -0.000000 
						CHANNELS 3 Zrotation Yrotation Xrotation
						JOINT LeftHandIndex1
						{
							OFFSET 0.715260 -0.000000 -0.000000 
							CHANNELS 3 Zrotation Yrotation Xrotation
							End Site
							{
								OFFSET 0.000000 0.000000 0.000000 
							}
						}
					}
				}
			}
			JOINT RightArm
			{
				OFFSET -3.136600 1.374050 -0.404650 
				CHANNELS 3 Zrotation Yrotation Xrotation
				JOINT RightForeArm
				{
					OFFSET -5.241900 -0.000000 -0.000000 
					CHANNELS 3 Zrotation Yrotation Xrotation
					JOINT RightHand
					{
						OFFSET -3.444170 -0.000000 -0.000000 
						CHANNELS 3 Zrotation Yrotation Xrotation
						JOINT RightHandIndex1
						{
							OFFSET -0.622530 -0.000000 -0.000000 
							CHANNELS 3 Zrotation Yrotation Xrotation
							End Site
							{
								OFFSET 0.000000 0.000000 0.000000 
							}
						}
					}
				}
			}
		}
	}
}
MOTION
Frames: 6
Frame Time: 0.041667
10.079572 17.877941 11.643314 -179.082148 0.743573 -149.024182 -21.112811 -20.934765 -22.786686 -1.297040 4.790732 9.323427 0.657611 -1.354096 -16.895321 4.674800 -13.008000 -39.398400 32.315621 19.963300 -21.061745 1.500999 -3.762248 6.648274 -0.990263 -4.813035 -21.874694 -2.028900 8.926000 -25.564300 1.206825 2.244568 -5.709642 0.476737 0.904701 11.946732 13.248684 -2.511540 16.915361 2.885700 -0.569600 2.909200 -106.704454 -2.970676 18.003465 13.906150 -16.669356 -2.611603 -1.869065 0.913571 -1.697628 -7.125000 0.000000 0.000000 101.486611 2.767457 23.736908 -21.712468 33.492554 -8.070253 -0.030380 3.658051 -5.536039 7.125000 0.000000 0.000000 
10.078479 17.876629 11.642111 -179.141986 0.789104 -149.048686 -21.193685 -20.994784 -22.742058 -1.297550 4.793950 9.333544 0.662948 -1.326471 -16.915427 4.767000 -13.116500 -39.806300 32.231481 19.965711 -21.048312 1.498073 -3.773552 6.685963 -0.994337 -4.776805 -21.906856 -2.000000 8.866000 -25.377100 1.211050 2.215143 -5.693692 0.516890 0.880862 12.000261 13.244401 -2.488234 16.920208 2.886500 -0.557900 2.906100 -106.718214 -3.004593 18.007494 13.918685 -16.685495 -2.615778 -1.867983 0.892247 -1.665752 -7.125000 0.000000 0.000000 101.328463 2.712398 23.464580 -21.559618 33.352356 -8.004431 0.059623 3.695155 -5.554648 7.125000 0.000000 0.000000 
10.078041 17.877832 11.642221 -179.138346 0.802475 -149.081946 -21.202834 -20.985125 -22.705327 -1.297646 4.787249 9.323618 0.663326 -1.292674 -16.857380 4.862500 -13.227300 -40.225300 32.234497 19.978849 -21.003868 1.496178 -3.775150 6.701889 -0.999083 -4.724122 -21.937800 -1.975900 8.815700 -25.220400 1.216742 2.201908 -5.678135 0.538690 0.866128 12.033518 13.237241 -2.491731 16.927145 2.878000 -0.557800 2.910700 -106.716975 -3.070291 18.052148 13.925496 -16.690636 -2.618132 -1.861946 0.876949 -1.670958 -7.125000 0.000000 0.000000 101.186197 2.651037 23.269087 -21.499339 33.280282 -7.953828 -0.018329 3.712659 -5.463324 7.125000 0.000000 0.000000 
10.076073 17.878488 11.640799 -179.097550 0.839503 -149.075531 -21.167285 -20.981217 -22.692784 -1.301417 4.785247 9.321585 0.676650 -1.205912 -16.885359 4.815100 -13.172500 -40.017700 32.244389 20.083441 -20.985712 1.497795 -3.777854 6.702204 -1.001188 -4.729095 -21.968696 -1.978200 8.820600 -25.235600 1.213463 2.218653 -5.684780 0.522996 0.876806 11.992043 13.230818 -2.503176 16.929349 2.876800 -0.563500 2.917900 -106.702134 -3.066892 18.138244 13.923321 -16.685900 -2.618623 -1.864279 0.894537 -1.800883 -7.125000 0.000000 0.000000 101.031255 2.573782 23.066522 -21.310489 33.079278 -7.835856 -0.051698 3.738811 -5.345013 7.125000 0.000000 0.000000 
10.073339 17.876519 11.638284 -179.098262 0.936270 -149.031911 -21.202170 -20.960705 -22.694732 -1.306334 4.775227 9.295018 0.690089 -1.135674 -16.943432 4.710300 -13.049900 -39.555700 32.192708 20.110876 -21.070203 1.494973 -3.795873 6.726839 -0.998883 -4.665805 -21.936639 -1.983300 8.831200 -25.268800 1.203420 2.249794 -5.706734 0.516125 0.899554 11.916135 13.224041 -2.501027 16.927569 2.879800 -0.563800 2.921600 -106.711069 -3.009122 18.060067 13.907553 -16.666132 -2.613909 -1.859844 0.927065 -1.761228 -7.125000 0.000000 0.000000 100.868756 2.474208 22.824929 -21.042284 32.798556 -7.699974 0.111120 3.614597 -5.376070 7.125000 0.000000 0.000000 
10.072246 17.875645 11.638284 -179.122913 0.984696 -148.988996 -21.233106 -20.945447 -22.747645 -1.305666 4.781169 9.299844 0.686418 -1.157524 -16.936927 4.732100 -13.075600 -39.652000 32.145304 20.059333 -21.159817 1.491032 -3.803253 6.730466 -0.995214 -4.586619 -21.881836 -1.977400 8.818900 -25.230500 1.197333 2.246902 -5.712800 0.520165 0.900187 11.908456 13.214914 -2.487201 16.929170 2.880700 -0.557400 2.922100 -106.699149 -2.952580 18.117856 13.931438 -16.708227 -2.627694 -1.848341 0.918455 -1.774946 -7.125000 0.000000 0.000000 100.746498 2.477888 22.606486 -20.820719 32.557225 -7.555710 -0.016333 3.736460 -5.383314 7.125000 0.000000 0.000000 
